<svg width="92" height="32" viewBox="0 0 92 32" fill="none" xmlns="http://www.w3.org/2000/svg">
<g clip-path="url(#clip0_2001_61)">
<path d="M30.1267 7.62067L26.6082 16.1747L28.087 7.62067H24.2371L21.7894 25.8042H25.9453L34.0786 7.62067H30.1267ZM35.7355 18.1256H39.0755L40.0444 14.8991H36.7043L37.9027 10.8972H41.3192L42.3135 7.62067H35.0216L29.5653 25.8042H36.7299L38.0047 22.3526H34.4606L35.7355 18.1256ZM13.9668 29.5284C11.9647 29.5284 10.0798 29.0308 8.43071 28.1535L7.44785 30.1466C9.39396 31.1676 11.6124 31.7457 13.9668 31.7457C18.4171 31.7457 22.3803 29.6796 24.9378 26.4622H21.8995C19.8109 28.3656 17.0262 29.5284 13.9668 29.5284ZM16.4357 22.6357V24.5144L21.1477 20.9656L16.5877 16.7604V18.5796H11.7236L16.5877 7.24722V15.5973L20.5263 19.252L20.6242 0H16.3142L0.56717 31.8995L5.79601 32L10.0213 22.6357H16.4357ZM3.7773 23.6616C2.79576 21.9598 2.2347 19.9888 2.2347 17.8876C2.2347 12.0354 6.58761 7.19233 12.2561 6.37061L13.4057 4.04194C5.95231 4.33439 0 10.4209 0 17.8877C0 20.8844 0.958838 23.6591 2.58854 25.9261L3.7773 23.6616ZM20.5186 25.8042V22.3691L16.431 25.8042H20.5186ZM78.6449 17.1752C79.5882 17.1752 80.1236 16.6249 80.2766 16.0997L82.1378 9.92178C82.4948 8.72122 81.9594 7.62072 80.3021 7.62072H73.2906L67.8343 25.8042H71.6843L74.0044 18.0506H75.2793C75.7382 18.0506 75.7892 18.3758 75.6872 18.6759L73.5455 25.8043H77.3954L79.3841 19.1762C79.7922 17.8755 79.2313 17.2752 78.6449 17.1752ZM78.033 11.2974L77.0131 14.674C76.8347 15.2243 76.5032 15.3743 76.1207 15.3743H74.795L76.2482 10.5471H77.4465C78.033 10.5471 78.186 10.8222 78.033 11.2974ZM49.0443 7.62067L46.9281 14.6489L46.8006 7.62067H43.5116L38.0553 25.8042H41.6758L43.894 18.5507L44.2255 25.8042H47.3106L52.7668 7.62067H49.0443ZM87.4662 10.8972H90.8317L91.8261 7.62067H85.8855C84.9676 7.62067 84.0498 7.87078 83.6163 9.14639L81.5001 16.1997C81.1177 17.5253 81.5001 18.4007 83.1064 18.4007H85.1461C85.3756 18.4007 85.3756 18.5007 85.3246 18.6508L84.4322 21.7272C84.2792 22.1774 84.1772 22.3526 83.4633 22.3526H80.2508L79.2055 25.8042H85.5031C86.2934 25.8042 87.1348 25.429 87.3388 24.7036L89.455 17.6503C89.9904 15.8745 89.1235 15.1242 87.7467 15.1242H85.6815L86.7778 11.4224C86.9053 11.0223 87.1858 10.8972 87.4662 10.8972ZM56.9479 14.8991L55.9791 18.1256H56.7694L55.3671 22.7778H54.0668C53.5568 22.7778 53.3274 22.5777 53.4804 22.0524L56.6674 11.4474C56.7949 10.9972 56.9989 10.8972 57.4069 10.8972H61.1548L62.1492 7.62061H56.0045C54.7807 7.62061 53.9393 7.97078 53.5314 9.32139L49.6049 22.4276C48.8911 24.8287 50.3443 25.8041 52.0781 25.8041H54.4493L54.0413 27.2298L58.3247 25.1038L61.3843 14.8989H56.9479V14.8991ZM65.5145 18.1256H68.8546L69.8235 14.8991H66.4834L67.6817 10.8972H71.0982L72.0926 7.62067H64.8006L59.3444 25.8042H66.5089L67.7837 22.3526H64.2397L65.5145 18.1256Z" fill="#4C42E4"/>
</g>
<defs>
<clipPath id="clip0_2001_61">
<rect width="91.8261" height="32" fill="white"/>
</clipPath>
</defs>
</svg>
